<svg width="24" height="24" viewBox="0 0 24 24" fill="none" xmlns="http://www.w3.org/2000/svg">
<path d="M3.53833 20C3.11148 20 2.74833 19.8461 2.44889 19.5383C2.14963 19.2303 2 18.8568 2 18.4177V5.58229C2 5.14324 2.14963 4.76971 2.44889 4.46171C2.74833 4.1539 3.11148 4 3.53833 4H20.4617C20.8885 4 21.2517 4.1539 21.5511 4.46171C21.8504 4.76971 22 5.14324 22 5.58229V18.4177C22 18.8568 21.8504 19.2303 21.5511 19.5383C21.2517 19.8461 20.8885 20 20.4617 20H3.53833ZM12 11.8329L2.85472 5.54943V18.4177C2.85472 18.6227 2.9188 18.7911 3.04694 18.9231C3.17528 19.055 3.33907 19.1209 3.53833 19.1209H20.4617C20.6609 19.1209 20.8247 19.055 20.9531 18.9231C21.0812 18.7911 21.1453 18.6227 21.1453 18.4177V5.54943L12 11.8329ZM12 10.822L20.7564 4.87914H3.27139L12 10.822ZM2.85472 5.54943V4.87914V18.4177C2.85472 18.6227 2.9188 18.7911 3.04694 18.9231C3.17528 19.055 3.33907 19.1209 3.53833 19.1209H2.85472V5.54943Z" fill="#1F1F1F"/>
</svg>
