<svg width="24" height="24" viewBox="0 0 24 24" fill="none" xmlns="http://www.w3.org/2000/svg">
<g clip-path="url(#clip0_194_425)">
<path d="M21.4286 22.1538V11.1538M2.57143 11.1538V22.1538M1 23H23M13.5714 23V14.9615C13.5714 14.6249 13.6956 14.3021 13.9166 14.0641C14.1376 13.826 14.4374 13.6923 14.75 13.6923H17.8929C18.2054 13.6923 18.5052 13.826 18.7262 14.0641C18.9473 14.3021 19.0714 14.6249 19.0714 14.9615V23M18.2106 1H5.78942C4.71937 1 3.75295 1.63462 3.3375 2.61087L1.21116 7.61058C0.495179 9.29284 1.68406 11.1988 3.52853 11.2596H3.62674C5.16871 11.2596 6.41848 9.92798 6.41848 8.49745C6.41848 9.92534 7.66875 11.2596 9.21071 11.2596C10.7527 11.2596 12 10.0232 12 8.49745C12 9.92534 13.2498 11.2596 14.7917 11.2596C16.3337 11.2596 17.584 10.0232 17.584 8.49745C17.584 10.0232 18.8337 11.2596 20.3757 11.2596H20.4715C22.3159 11.1977 23.5048 9.29178 22.7888 7.61058L20.6625 2.61087C20.2471 1.63462 19.2806 1 18.2106 1ZM6.10714 13.6923H10.0357C10.3483 13.6923 10.6481 13.826 10.8691 14.0641C11.0901 14.3021 11.2143 14.6249 11.2143 14.9615V19.6154H4.92857V14.9615C4.92857 14.6249 5.05274 14.3021 5.27377 14.0641C5.49479 13.826 5.79457 13.6923 6.10714 13.6923Z" stroke="#2D6A4F" stroke-width="1.5" stroke-linecap="round" stroke-linejoin="round"/>
</g>
<defs>
<clipPath id="clip0_194_425">
<rect width="24" height="24" fill="white"/>
</clipPath>
</defs>
</svg>
