<svg width="24" height="24" viewBox="0 0 24 24" fill="none" xmlns="http://www.w3.org/2000/svg">
<path d="M12 10.7588C10.7036 10.7588 9.624 10.2945 8.76129 9.36587C7.89857 8.43722 7.46721 7.26965 7.46721 5.86314C7.46721 4.45692 7.89857 3.29484 8.76129 2.3769C9.624 1.45897 10.7036 1 12 1C13.2964 1 14.376 1.45897 15.2387 2.3769C16.1014 3.29484 16.5328 4.45692 16.5328 5.86314C16.5328 7.26965 16.1014 8.43722 15.2387 9.36587C14.376 10.2945 13.2964 10.7588 12 10.7588ZM1 23V20.5536C1 19.8077 1.19839 19.1408 1.59518 18.553C1.99223 17.9655 2.51302 17.5068 3.15757 17.1769C4.71093 16.4397 6.21714 15.8814 7.67621 15.5019C9.13502 15.1224 10.576 14.9327 11.9992 14.9327C13.4221 14.9327 14.8618 15.124 16.3183 15.5065C17.775 15.8894 19.2745 16.4511 20.8169 17.1917C21.4832 17.5159 22.0137 17.9708 22.4084 18.5564C22.8028 19.1419 23 19.8077 23 20.5536V23H1ZM2.20882 21.6988H21.7912V20.5536C21.7912 20.1243 21.6567 19.7105 21.3877 19.3125C21.1187 18.9147 20.7506 18.5846 20.2834 18.3221C18.8691 17.5784 17.4861 17.0444 16.1344 16.7202C14.783 16.396 13.4049 16.2339 12 16.2339C10.5951 16.2339 9.20888 16.396 7.84122 16.7202C6.47355 17.0444 5.09567 17.5784 3.70757 18.3221C3.24033 18.5846 2.87367 18.9147 2.60757 19.3125C2.34174 19.7105 2.20882 20.1243 2.20882 20.5536V21.6988ZM12 9.45764C12.9408 9.45764 13.73 9.11454 14.3678 8.42834C15.0055 7.74186 15.3244 6.89229 15.3244 5.87963C15.3244 4.86697 15.0055 4.0174 14.3678 3.33092C13.73 2.64445 12.9408 2.30121 12 2.30121C11.0592 2.30121 10.27 2.64445 9.63225 3.33092C8.99451 4.0174 8.67564 4.86697 8.67564 5.87963C8.67564 6.89229 8.99451 7.74186 9.63225 8.42834C10.27 9.11454 11.0592 9.45764 12 9.45764Z" fill="#2D6A4F"/>
</svg>
