<svg width="24" height="24" viewBox="0 0 24 24" fill="none" xmlns="http://www.w3.org/2000/svg">
<path d="M12.0112 11.5188C12.6535 11.5188 13.1998 11.3386 13.6501 10.9782C14.1001 10.6179 14.3252 10.1847 14.3252 9.67858C14.3252 9.17251 14.0964 8.74224 13.6389 8.38777C13.1813 8.03329 12.6313 7.85606 11.9888 7.85606C11.3465 7.85606 10.8002 8.03614 10.3499 8.39631C9.89985 8.75669 9.67483 9.18991 9.67483 9.69598C9.67483 10.202 9.9036 10.6323 10.3611 10.9868C10.8187 11.3415 11.3687 11.5188 12.0112 11.5188ZM12 21.7391C15.0387 19.6526 17.433 17.5484 19.1828 15.4267C20.9327 13.3049 21.8076 11.4654 21.8076 9.90811C21.8076 7.59183 20.8797 5.68069 19.024 4.17469C17.1682 2.66869 14.8269 1.91569 12 1.91569C9.17311 1.91569 6.83179 2.66869 4.97604 4.17469C3.1203 5.68069 2.19243 7.59183 2.19243 9.90811C2.19243 11.4654 3.07677 13.3049 4.84545 15.4267C6.61439 17.5484 8.99924 19.6526 12 21.7391ZM12 23C8.35723 20.4627 5.61327 18.0964 3.76812 15.901C1.92271 13.7058 1 11.7081 1 9.90811C1 7.32526 2.06777 5.19487 4.20331 3.51692C6.33859 1.83897 8.93749 1 12 1C15.0625 1 17.6614 1.83897 19.7967 3.51692C21.9322 5.19487 23 7.32526 23 9.90811C23 11.7081 22.0773 13.7058 20.2319 15.901C18.3867 18.0964 15.6428 20.4627 12 23Z" fill="#2D6A4F"/>
</svg>
