<svg width="24" height="24" viewBox="0 0 24 24" fill="none" xmlns="http://www.w3.org/2000/svg">
<path d="M11.9232 23C9.01284 23 6.5089 22.016 4.41133 20.0479C2.31377 18.0796 1.17665 15.6411 1 12.7325H2.06027C2.2723 15.315 3.31305 17.4956 5.1825 19.2744C7.05219 21.053 9.29907 21.9423 11.9232 21.9423C14.717 21.9423 17.0848 20.9666 19.0267 19.0152C20.9687 17.0637 21.9397 14.6944 21.9397 11.9075C21.9397 9.15386 20.9661 6.82381 19.0187 4.91738C17.0714 3.01094 14.7062 2.05772 11.9232 2.05772C10.52 2.05772 9.18812 2.35117 7.92742 2.93806C6.66649 3.52519 5.54833 4.32383 4.57294 5.334H7.89951V6.39172H2.68568V1.17188H3.74595V4.65681C4.8169 3.52335 6.05877 2.63052 7.47154 1.97831C8.88432 1.3261 10.3682 1 11.9232 1C13.4517 1 14.8857 1.28554 16.2252 1.85662C17.5645 2.42794 18.7364 3.21203 19.741 4.20891C20.7458 5.20578 21.5401 6.3696 22.1241 7.70037C22.708 9.03137 23 10.4505 23 11.9577C23 13.4826 22.708 14.9175 22.1241 16.2625C21.5401 17.6075 20.7458 18.7753 19.741 19.766C18.7364 20.7567 17.5645 21.5434 16.2252 22.1262C14.8857 22.7087 13.4517 23 11.9232 23ZM16.5988 17.2064L11.531 12.1932V5.07481H12.591V11.7566L17.3648 16.4423L16.5988 17.2064Z" fill="#2D6A4F"/>
</svg>
