<svg width="24" height="24" viewBox="0 0 24 24" fill="none" xmlns="http://www.w3.org/2000/svg">
<path d="M9.89698 23L9.38716 19.5026C8.92249 19.36 8.41257 19.1391 7.8574 18.8399C7.30202 18.5404 6.83177 18.2192 6.44665 17.8761L3.10997 19.3379L1 15.7137L3.97208 13.5819C3.92999 13.3358 3.89558 13.0761 3.86885 12.8027C3.84212 12.5293 3.82876 12.2696 3.82876 12.0235C3.82876 11.7931 3.84212 11.5413 3.86885 11.2679C3.89558 10.9945 3.92999 10.7113 3.97208 10.4181L1 8.26275L3.10997 4.70883L6.42234 6.12386C6.85608 5.78082 7.33443 5.46355 7.8574 5.17205C8.38037 4.88055 8.88219 4.66585 9.36285 4.52795L9.89698 1H14.103L14.6128 4.52092C15.1421 4.71056 15.6452 4.93423 16.1221 5.19192C16.5987 5.44981 17.0516 5.76045 17.4807 6.12386L20.914 4.70883L23 8.26275L19.9307 10.4511C20.0052 10.7331 20.0517 11.003 20.0702 11.2609C20.089 11.5185 20.0983 11.7649 20.0983 12C20.0983 12.2194 20.085 12.4568 20.0582 12.7122C20.0315 12.9677 19.989 13.2521 19.9307 13.5654L22.9757 15.7137L20.8657 19.3379L17.4807 17.8526C17.0306 18.227 16.5655 18.5572 16.0855 18.8432C15.6056 19.1292 15.1148 19.3412 14.6128 19.4791L14.103 23H9.89698ZM10.684 22.0598H13.2917L13.758 18.6611C14.4039 18.4981 14.9968 18.267 15.5368 17.9678C16.0766 17.6686 16.6234 17.2667 17.1771 16.7621L20.426 18.1206L21.6887 15.9912L18.8186 13.9296C18.9028 13.5521 18.9671 13.2109 19.0118 12.906C19.0562 12.6012 19.0784 12.2992 19.0784 12C19.0784 11.6694 19.0573 11.3596 19.0152 11.0705C18.9731 10.7812 18.9076 10.4635 18.8186 10.1172L21.7373 8.00883L20.4746 5.87942L17.1528 7.23792C16.7497 6.8024 16.2269 6.39469 15.5842 6.01478C14.9415 5.63467 14.3246 5.40937 13.7337 5.33889L13.316 1.9402H10.684L10.2906 5.31536C9.60729 5.44227 8.98762 5.65931 8.43161 5.9665C7.8756 6.27368 7.33128 6.68965 6.79863 7.21439L3.5254 5.87942L2.2627 8.00883L5.13281 10.0469C5.03243 10.3461 4.96003 10.6598 4.91563 10.988C4.87101 11.3164 4.84871 11.6615 4.84871 12.0235C4.84871 12.3541 4.87101 12.6758 4.91563 12.9885C4.96003 13.301 5.02433 13.6147 5.10851 13.9296L2.2627 15.9912L3.5254 18.1206L6.77432 16.7856C7.2794 17.29 7.81405 17.6919 8.37826 17.9913C8.94248 18.2906 9.57183 18.5217 10.2663 18.6846L10.684 22.0598ZM11.9271 14.9144C12.7722 14.9144 13.4854 14.6332 14.0664 14.0707C14.6477 13.5081 14.9383 12.8179 14.9383 12C14.9383 11.1821 14.6477 10.4919 14.0664 9.92925C13.4854 9.36682 12.7722 9.08561 11.9271 9.08561C11.0983 9.08561 10.3893 9.36682 9.80006 9.92925C9.2108 10.4919 8.91617 11.1821 8.91617 12C8.91617 12.8179 9.2108 13.5081 9.80006 14.0707C10.3893 14.6332 11.0983 14.9144 11.9271 14.9144Z" fill="#2D6A4F"/>
</svg>
