<svg width="24" height="24" viewBox="0 0 24 24" fill="none" xmlns="http://www.w3.org/2000/svg">
<path d="M5.48339 22C5.08268 22 4.73527 21.8475 4.44116 21.5425C4.14705 21.2375 4 20.8772 4 20.4617V10.2864C4 9.85972 4.14705 9.49667 4.44116 9.19722C4.73527 8.89759 5.08268 8.74778 5.48339 8.74778H7.33804V6.31611C7.33804 5.1137 7.74223 4.0938 8.55063 3.25639C9.35902 2.4188 10.3436 2 11.5043 2C12.6648 2 13.6479 2.4188 14.4537 3.25639C15.2592 4.0938 15.662 5.1137 15.662 6.31611V8.74778H17.5166C17.9173 8.74778 18.2647 8.89759 18.5588 9.19722C18.8529 9.49667 19 9.85972 19 10.2864V20.4617C19 20.8772 18.8529 21.2375 18.5588 21.5425C18.2647 21.8475 17.9173 22 17.5166 22H5.48339ZM5.48339 21.1453H17.5166C17.7087 21.1453 17.8667 21.0812 17.9904 20.9531C18.114 20.8247 18.1758 20.6609 18.1758 20.4617V10.2864C18.1758 10.0869 18.114 9.92315 17.9904 9.795C17.8667 9.66667 17.7087 9.6025 17.5166 9.6025H5.48339C5.29125 9.6025 5.1333 9.66667 5.00955 9.795C4.88598 9.92315 4.8242 10.0869 4.8242 10.2864V20.4617C4.8242 20.6609 4.88598 20.8247 5.00955 20.9531C5.1333 21.0812 5.29125 21.1453 5.48339 21.1453ZM11.5046 17C11.9356 17 12.3039 16.8423 12.6095 16.5269C12.9152 16.2116 13.068 15.8315 13.068 15.3867C13.068 14.9594 12.9138 14.5794 12.6052 14.2467C12.2964 13.9141 11.9265 13.7478 11.4954 13.7478C11.0644 13.7478 10.6961 13.9141 10.3905 14.2467C10.0848 14.5794 9.93196 14.9641 9.93196 15.4006C9.93196 15.8372 10.0862 16.213 10.3948 16.5278C10.7036 16.8426 11.0735 17 11.5046 17ZM8.16196 8.74778H14.838V6.31611C14.838 5.35463 14.5139 4.53741 13.8657 3.86444C13.2175 3.1913 12.4304 2.85472 11.5043 2.85472C10.5784 2.85472 9.78991 3.1913 9.13884 3.86444C8.48759 4.53741 8.16196 5.35463 8.16196 6.31611V8.74778Z" fill="#1F1F1F"/>
</svg>
