<svg width="24" height="24" viewBox="0 0 24 24" fill="none" xmlns="http://www.w3.org/2000/svg">
<path d="M2.48581 19.6667C2.07353 19.6667 1.72278 19.4871 1.43356 19.128C1.14452 18.7687 1 18.3329 1 17.8207V2.846C1 2.33378 1.14452 1.898 1.43356 1.53867C1.72278 1.17955 2.07353 1 2.48581 1H18.8313C19.2435 1 19.5943 1.17955 19.8835 1.53867C20.1726 1.898 20.3171 2.33378 20.3171 2.846V8.941H1.82554V17.8207C1.82554 18.0258 1.89431 18.2138 2.03185 18.3847C2.1694 18.5556 2.32072 18.641 2.48581 18.641H11.6842V19.6667H2.48581ZM1.82554 6.077H19.4915V2.846C19.4915 2.64089 19.4228 2.45289 19.2852 2.282C19.1477 2.11111 18.9964 2.02567 18.8313 2.02567H2.48581C2.32072 2.02567 2.1694 2.11111 2.03185 2.282C1.89431 2.45289 1.82554 2.64089 1.82554 2.846V6.077ZM18.955 23V19H15.7354V17.9743H18.955V13.9743H19.7805V17.9743H23V19H19.7805V23H18.955Z" fill="#2D6A4F"/>
</svg>
