<svg width="187" height="51" viewBox="0 0 187 51" fill="none" xmlns="http://www.w3.org/2000/svg">
<path d="M18.6914 31.4688H25.0195C24.9154 33.4219 24.3815 35.1471 23.418 36.6445C22.4674 38.1289 21.1458 39.2943 19.4531 40.1406C17.7604 40.974 15.7487 41.3906 13.418 41.3906C11.556 41.3906 9.88932 41.0716 8.41797 40.4336C6.94661 39.7956 5.69661 38.8841 4.66797 37.6992C3.65234 36.5013 2.87109 35.0625 2.32422 33.3828C1.79036 31.6901 1.52344 29.7826 1.52344 27.6602V25.9219C1.52344 23.7995 1.80339 21.8919 2.36328 20.1992C2.92318 18.5065 3.72396 17.0612 4.76562 15.8633C5.80729 14.6654 7.05729 13.7474 8.51562 13.1094C9.97396 12.4714 11.6016 12.1523 13.3984 12.1523C15.8203 12.1523 17.8646 12.5885 19.5312 13.4609C21.1979 14.3333 22.487 15.5312 23.3984 17.0547C24.3229 18.5781 24.8763 20.3164 25.0586 22.2695H18.7109C18.6589 21.1628 18.4505 20.2318 18.0859 19.4766C17.7214 18.7083 17.1615 18.1289 16.4062 17.7383C15.651 17.3477 14.6484 17.1523 13.3984 17.1523C12.487 17.1523 11.6862 17.3216 10.9961 17.6602C10.319 17.9987 9.7526 18.526 9.29688 19.2422C8.85417 19.9583 8.52214 20.8698 8.30078 21.9766C8.07943 23.0703 7.96875 24.3724 7.96875 25.8828V27.6602C7.96875 29.1576 8.06641 30.4531 8.26172 31.5469C8.45703 32.6406 8.76953 33.5456 9.19922 34.2617C9.64193 34.9779 10.2083 35.5117 10.8984 35.8633C11.5885 36.2148 12.4284 36.3906 13.418 36.3906C14.5508 36.3906 15.4948 36.2148 16.25 35.8633C17.0052 35.4987 17.5846 34.9518 17.9883 34.2227C18.3919 33.4935 18.6263 32.5755 18.6914 31.4688ZM27.3633 30.6484V30.2383C27.3633 28.6888 27.5846 27.263 28.0273 25.9609C28.4701 24.6458 29.1211 23.5065 29.9805 22.543C30.8398 21.5794 31.8945 20.8307 33.1445 20.2969C34.3945 19.75 35.8268 19.4766 37.4414 19.4766C39.082 19.4766 40.5273 19.75 41.7773 20.2969C43.0404 20.8307 44.1016 21.5794 44.9609 22.543C45.8203 23.5065 46.4714 24.6458 46.9141 25.9609C47.3568 27.263 47.5781 28.6888 47.5781 30.2383V30.6484C47.5781 32.1849 47.3568 33.6107 46.9141 34.9258C46.4714 36.2279 45.8203 37.3672 44.9609 38.3438C44.1016 39.3073 43.0469 40.056 41.7969 40.5898C40.5469 41.1237 39.1081 41.3906 37.4805 41.3906C35.8659 41.3906 34.4271 41.1237 33.1641 40.5898C31.901 40.056 30.8398 39.3073 29.9805 38.3438C29.1211 37.3672 28.4701 36.2279 28.0273 34.9258C27.5846 33.6107 27.3633 32.1849 27.3633 30.6484ZM33.4766 30.2383V30.6484C33.4766 31.4818 33.5417 32.263 33.6719 32.9922C33.8151 33.7214 34.043 34.3594 34.3555 34.9062C34.668 35.4531 35.0781 35.8828 35.5859 36.1953C36.1068 36.4948 36.7383 36.6445 37.4805 36.6445C38.2227 36.6445 38.8477 36.4948 39.3555 36.1953C39.8633 35.8828 40.2734 35.4531 40.5859 34.9062C40.8984 34.3594 41.1198 33.7214 41.25 32.9922C41.3932 32.263 41.4648 31.4818 41.4648 30.6484V30.2383C41.4648 29.418 41.3932 28.6497 41.25 27.9336C41.1198 27.2044 40.8984 26.5599 40.5859 26C40.2734 25.4401 39.8568 25.0039 39.3359 24.6914C38.8281 24.3789 38.1966 24.2227 37.4414 24.2227C36.7122 24.2227 36.0938 24.3789 35.5859 24.6914C35.0781 25.0039 34.668 25.4401 34.3555 26C34.043 26.5599 33.8151 27.2044 33.6719 27.9336C33.5417 28.6497 33.4766 29.418 33.4766 30.2383ZM57.207 11V41H51.0938V11H57.207ZM67.5586 11V41H61.4648V11H67.5586ZM66.7578 29.6914L65.2344 29.7305C65.2344 28.2461 65.4167 26.8854 65.7812 25.6484C66.1589 24.3984 66.6927 23.3112 67.3828 22.3867C68.0729 21.4622 68.8997 20.7461 69.8633 20.2383C70.8398 19.7305 71.9141 19.4766 73.0859 19.4766C74.1276 19.4766 75.0781 19.6263 75.9375 19.9258C76.7969 20.2253 77.5391 20.7005 78.1641 21.3516C78.7891 22.0026 79.2708 22.8555 79.6094 23.9102C79.9479 24.9648 80.1172 26.2474 80.1172 27.7578V41H73.9844V27.7188C73.9844 26.8203 73.8542 26.1172 73.5938 25.6094C73.3464 25.1016 72.9818 24.7435 72.5 24.5352C72.0312 24.3268 71.4583 24.2227 70.7812 24.2227C69.987 24.2227 69.3294 24.3659 68.8086 24.6523C68.2878 24.9258 67.8776 25.3099 67.5781 25.8047C67.2786 26.2995 67.0638 26.8789 66.9336 27.543C66.8164 28.207 66.7578 28.9232 66.7578 29.6914ZM95.293 35.9609V26.8984C95.293 26.2604 95.1953 25.7135 95 25.2578C94.8047 24.8021 94.4987 24.444 94.082 24.1836C93.6654 23.9232 93.125 23.793 92.4609 23.793C91.901 23.793 91.4128 23.8906 90.9961 24.0859C90.5924 24.2812 90.2799 24.5612 90.0586 24.9258C89.8503 25.2904 89.7461 25.7396 89.7461 26.2734H83.6523C83.6523 25.3229 83.8672 24.4375 84.2969 23.6172C84.7266 22.7969 85.3385 22.0742 86.1328 21.4492C86.9401 20.8242 87.9036 20.3424 89.0234 20.0039C90.1432 19.6523 91.3997 19.4766 92.793 19.4766C94.4466 19.4766 95.918 19.7565 97.207 20.3164C98.5091 20.8633 99.5378 21.6901 100.293 22.7969C101.048 23.8906 101.426 25.2708 101.426 26.9375V35.7852C101.426 37.0612 101.497 38.0638 101.641 38.793C101.797 39.5091 102.018 40.1341 102.305 40.668V41H96.1523C95.8659 40.388 95.651 39.6328 95.5078 38.7344C95.3646 37.8229 95.293 36.8984 95.293 35.9609ZM96.0547 28.1094L96.0938 31.4688H93.0664C92.3893 31.4688 91.8034 31.5534 91.3086 31.7227C90.8268 31.8919 90.4362 32.1263 90.1367 32.4258C89.8372 32.7122 89.6159 33.0508 89.4727 33.4414C89.3424 33.819 89.2773 34.2357 89.2773 34.6914C89.2773 35.1211 89.3815 35.5117 89.5898 35.8633C89.7982 36.2018 90.0846 36.4688 90.4492 36.6641C90.8138 36.8594 91.237 36.957 91.7188 36.957C92.513 36.957 93.1901 36.8008 93.75 36.4883C94.3229 36.1758 94.7656 35.7982 95.0781 35.3555C95.3906 34.8997 95.5469 34.4766 95.5469 34.0859L97.0117 36.625C96.7773 37.1458 96.4909 37.6862 96.1523 38.2461C95.8138 38.793 95.3841 39.3073 94.8633 39.7891C94.3424 40.2578 93.7109 40.6419 92.9688 40.9414C92.2396 41.2409 91.3607 41.3906 90.332 41.3906C89.0039 41.3906 87.7995 41.1237 86.7188 40.5898C85.638 40.043 84.7721 39.2943 84.1211 38.3438C83.4831 37.3932 83.1641 36.2995 83.1641 35.0625C83.1641 33.9557 83.3659 32.9727 83.7695 32.1133C84.1732 31.2539 84.7786 30.5247 85.5859 29.9258C86.4062 29.3268 87.4349 28.8776 88.6719 28.5781C89.9089 28.2656 91.3542 28.1094 93.0078 28.1094H96.0547ZM124.824 24.0078V28.9297H110.098V24.0078H124.824ZM112.109 12.5625V41H105.742V12.5625H112.109ZM129.219 12.5625V41H122.871V12.5625H129.219ZM132.754 30.6484V30.2383C132.754 28.6888 132.975 27.263 133.418 25.9609C133.861 24.6458 134.512 23.5065 135.371 22.543C136.23 21.5794 137.285 20.8307 138.535 20.2969C139.785 19.75 141.217 19.4766 142.832 19.4766C144.473 19.4766 145.918 19.75 147.168 20.2969C148.431 20.8307 149.492 21.5794 150.352 22.543C151.211 23.5065 151.862 24.6458 152.305 25.9609C152.747 27.263 152.969 28.6888 152.969 30.2383V30.6484C152.969 32.1849 152.747 33.6107 152.305 34.9258C151.862 36.2279 151.211 37.3672 150.352 38.3438C149.492 39.3073 148.438 40.056 147.188 40.5898C145.938 41.1237 144.499 41.3906 142.871 41.3906C141.257 41.3906 139.818 41.1237 138.555 40.5898C137.292 40.056 136.23 39.3073 135.371 38.3438C134.512 37.3672 133.861 36.2279 133.418 34.9258C132.975 33.6107 132.754 32.1849 132.754 30.6484ZM138.867 30.2383V30.6484C138.867 31.4818 138.932 32.263 139.062 32.9922C139.206 33.7214 139.434 34.3594 139.746 34.9062C140.059 35.4531 140.469 35.8828 140.977 36.1953C141.497 36.4948 142.129 36.6445 142.871 36.6445C143.613 36.6445 144.238 36.4948 144.746 36.1953C145.254 35.8828 145.664 35.4531 145.977 34.9062C146.289 34.3594 146.51 33.7214 146.641 32.9922C146.784 32.263 146.855 31.4818 146.855 30.6484V30.2383C146.855 29.418 146.784 28.6497 146.641 27.9336C146.51 27.2044 146.289 26.5599 145.977 26C145.664 25.4401 145.247 25.0039 144.727 24.6914C144.219 24.3789 143.587 24.2227 142.832 24.2227C142.103 24.2227 141.484 24.3789 140.977 24.6914C140.469 25.0039 140.059 25.4401 139.746 26C139.434 26.5599 139.206 27.2044 139.062 27.9336C138.932 28.6497 138.867 29.418 138.867 30.2383ZM156.562 19.8672H162.695V41.9766C162.695 43.6042 162.389 44.9779 161.777 46.0977C161.165 47.2305 160.28 48.0833 159.121 48.6562C157.975 49.2422 156.602 49.5352 155 49.5352C154.479 49.5352 153.984 49.5091 153.516 49.457C153.047 49.418 152.546 49.3333 152.012 49.2031V44.5547C152.337 44.6068 152.65 44.6458 152.949 44.6719C153.236 44.7109 153.542 44.7305 153.867 44.7305C154.453 44.7305 154.941 44.6328 155.332 44.4375C155.736 44.2422 156.042 43.9362 156.25 43.5195C156.458 43.1159 156.562 42.6016 156.562 41.9766V19.8672ZM156.094 14.3984C156.094 13.513 156.406 12.7904 157.031 12.2305C157.656 11.6576 158.483 11.3711 159.512 11.3711C160.527 11.3711 161.348 11.6576 161.973 12.2305C162.598 12.7904 162.91 13.513 162.91 14.3984C162.91 15.2708 162.598 15.9935 161.973 16.5664C161.348 17.1263 160.527 17.4062 159.512 17.4062C158.483 17.4062 157.656 17.1263 157.031 16.5664C156.406 15.9935 156.094 15.2708 156.094 14.3984ZM176.758 41.3906C175.078 41.3906 173.574 41.1237 172.246 40.5898C170.918 40.056 169.792 39.3203 168.867 38.3828C167.956 37.4323 167.259 36.3385 166.777 35.1016C166.296 33.8646 166.055 32.543 166.055 31.1367V30.3945C166.055 28.819 166.276 27.3672 166.719 26.0391C167.161 24.7109 167.806 23.5586 168.652 22.582C169.512 21.5924 170.566 20.8307 171.816 20.2969C173.066 19.75 174.492 19.4766 176.094 19.4766C177.591 19.4766 178.926 19.724 180.098 20.2188C181.27 20.7005 182.259 21.3971 183.066 22.3086C183.874 23.207 184.486 24.2943 184.902 25.5703C185.332 26.8333 185.547 28.2526 185.547 29.8281V32.3281H168.516V28.4023H179.57V27.9336C179.57 27.1914 179.434 26.5404 179.16 25.9805C178.9 25.4206 178.509 24.9909 177.988 24.6914C177.48 24.3789 176.836 24.2227 176.055 24.2227C175.312 24.2227 174.694 24.3789 174.199 24.6914C173.704 25.0039 173.307 25.4466 173.008 26.0195C172.721 26.5794 172.513 27.237 172.383 27.9922C172.253 28.7344 172.188 29.5352 172.188 30.3945V31.1367C172.188 31.957 172.298 32.7057 172.52 33.3828C172.741 34.0599 173.066 34.6393 173.496 35.1211C173.926 35.6029 174.447 35.9805 175.059 36.2539C175.671 36.5273 176.367 36.6641 177.148 36.6641C178.112 36.6641 179.03 36.4818 179.902 36.1172C180.775 35.7396 181.53 35.1536 182.168 34.3594L185.02 37.6211C184.59 38.2461 183.984 38.8516 183.203 39.4375C182.435 40.0104 181.51 40.4792 180.43 40.8438C179.349 41.2083 178.125 41.3906 176.758 41.3906Z" fill="#2D6A4F"/>
<circle cx="159" cy="14" r="4" fill="#F1F1F1"/>
<path d="M164.072 19C163.187 19 162.332 18.8873 161.506 18.6618C160.68 18.4364 159.925 18.1063 159.239 17.6714C159.881 15.6649 160.718 13.7454 161.749 11.9131C162.781 10.0809 164.1 8.50373 165.708 7.18149C163.867 8.23928 162.264 9.59389 160.898 11.2453C159.533 12.8965 158.616 14.7653 158.146 16.8515C158.061 16.7672 157.974 16.6893 157.884 16.6178C157.794 16.5465 157.699 16.4605 157.599 16.36C156.764 15.5082 156.122 14.5438 155.673 13.4669C155.224 12.3897 155 11.2736 155 10.1186C155 8.82564 155.246 7.59356 155.737 6.42232C156.228 5.25128 156.925 4.21395 157.827 3.31032C159.271 1.83899 161.131 0.879892 163.406 0.433032C165.681 -0.0138292 169.148 -0.114841 173.808 0.129994C174.127 4.54883 174.049 7.94731 173.573 10.3254C173.097 12.7036 172.114 14.647 170.623 16.1556C169.742 17.0639 168.735 17.7651 167.604 18.2592C166.473 18.7531 165.296 19 164.072 19Z" fill="#2D6A4F"/>
</svg>
