<svg width="24" height="24" viewBox="0 0 24 24" fill="none" xmlns="http://www.w3.org/2000/svg">
<path d="M21.3146 22L13.4999 14.1856C12.8959 14.7312 12.1913 15.1474 11.3863 15.434C10.5815 15.7207 9.77198 15.864 8.9578 15.864C7.01307 15.864 5.36731 15.1923 4.02051 13.849C2.6735 12.5057 2 10.8679 2 8.93582C2 7.00371 2.67167 5.36466 4.01501 4.01868C5.35836 2.67289 6.99547 2 8.92636 2C10.8573 2 12.5002 2.67198 13.8551 4.01593C15.2098 5.36009 15.8872 6.99741 15.8872 8.92789C15.8872 9.76628 15.7371 10.5884 15.4368 11.3942C15.1363 12.2003 14.7168 12.9046 14.1783 13.5072L22 21.2911L21.3146 22ZM8.95078 14.925C10.6324 14.925 12.0525 14.348 13.2109 13.1938C14.3693 12.0397 14.9485 10.619 14.9485 8.93186C14.9485 7.2449 14.3693 5.82435 13.2109 4.67021C12.0525 3.51607 10.6324 2.939 8.95078 2.939C7.26504 2.939 5.84164 3.51607 4.68058 4.67021C3.51953 5.82435 2.939 7.2449 2.939 8.93186C2.939 10.619 3.51953 12.0397 4.68058 13.1938C5.84164 14.348 7.26504 14.925 8.95078 14.925Z" fill="#343A40"/>
</svg>
