<svg width="48" height="48" viewBox="0 0 48 48" fill="none" xmlns="http://www.w3.org/2000/svg">
<g clip-path="url(#clip0_136_463)">
<path d="M30.2925 43L17.7575 37.7014L10 41.3585C9.536 41.6259 9.08667 41.5981 8.652 41.2752C8.21733 40.9526 8 40.4684 8 39.8225V10.5659C8 10.1387 8.0865 9.7482 8.2595 9.39448C8.4325 9.04117 8.68067 8.79536 9.004 8.65707L17.7575 5L30.2925 10.2386L38 6.6277C38.464 6.3695 38.9133 6.3765 39.348 6.64868C39.7827 6.92046 40 7.36391 40 7.97902V37.7938C40 38.2026 39.8942 38.5592 39.6825 38.8633C39.4712 39.1679 39.2078 39.3847 38.8925 39.5138L30.2925 43ZM29.4 40.7176V11.6409L18.6 7.17626V36.253L29.4 40.7176ZM30.9385 40.7176L38.4615 37.7614V8.26499L30.9385 11.6409V40.7176ZM9.5385 39.6751L17.0615 36.253V7.17626L9.5385 10.2248V39.6751Z" fill="#1F1F1F"/>
</g>
<defs>
<clipPath id="clip0_136_463">
<rect width="48" height="48" fill="white"/>
</clipPath>
</defs>
</svg>
