<svg width="48" height="48" viewBox="0 0 48 48" fill="none" xmlns="http://www.w3.org/2000/svg">
<g clip-path="url(#clip0_136_439)">
<path d="M31.8656 42L16.1969 37.1197L6.5 40.4881C5.92 40.7344 5.35833 40.7088 4.815 40.4113C4.27167 40.1143 4 39.6683 4 39.0734V12.1265C4 11.733 4.10813 11.3733 4.32438 11.0476C4.54063 10.7221 4.85083 10.4957 5.255 10.3684L16.1969 7L31.8656 11.825L41.5 8.49919C42.08 8.26138 42.6417 8.26783 43.185 8.51852C43.7283 8.76885 44 9.17728 44 9.74383V37.2048C44 37.5814 43.8677 37.9097 43.6031 38.1899C43.339 38.4704 43.0098 38.6701 42.6156 38.789L31.8656 42ZM30.75 39.8978V13.1166L17.25 9.00445V35.7857L30.75 39.8978Z" fill="#2D6A4F"/>
</g>
<defs>
<clipPath id="clip0_136_439">
<rect width="48" height="48" fill="white"/>
</clipPath>
</defs>
</svg>
