<svg width="48" height="48" viewBox="0 0 48 48" fill="none" xmlns="http://www.w3.org/2000/svg">
<g clip-path="url(#clip0_136_431)">
<path d="M8.5704 44C7.29829 44 6.21842 43.5952 5.3308 42.7857C4.4436 41.9758 4 40.9973 4 39.8503V35.1794H11.6619V4L14.8181 6.00903L18.0696 4L21.321 6.00903L24.5724 4L27.8238 6.00903L31.0783 4L34.3329 6.00903L37.5868 4L40.8413 6.00903L44 4V39.8298C44 40.9905 43.5564 41.9758 42.6692 42.7857C41.7816 43.5952 40.7017 44 39.4296 44H8.5704ZM39.4078 42.2532C40.137 42.2532 40.7505 42.0277 41.2482 41.5766C41.7459 41.1251 41.9948 40.537 41.9948 39.8122V6.71636H13.6671V36.489H36.9266V39.8298C36.9266 40.5284 37.1579 41.1071 37.6204 41.5658C38.0832 42.0241 38.6791 42.2532 39.4078 42.2532ZM17.4909 14.4981V12.7514H30.7959V14.4981H17.4909ZM17.4909 21.7117V19.9655H30.7959V21.7117H17.4909ZM36.5341 15.1095C36.1002 15.1095 35.7205 14.961 35.3949 14.6639C35.0697 14.3668 34.9071 14.0203 34.9071 13.6245C34.9071 13.2286 35.0697 12.8823 35.3949 12.5856C35.7205 12.2885 36.1002 12.14 36.5341 12.14C36.9679 12.14 37.3476 12.2885 37.6732 12.5856C37.9988 12.8823 38.1616 13.2286 38.1616 13.6245C38.1616 14.0203 37.9988 14.3668 37.6732 14.6639C37.3476 14.961 36.9679 15.1095 36.5341 15.1095ZM36.5341 22.1704C36.1002 22.1704 35.7205 22.022 35.3949 21.7253C35.0697 21.4282 34.9071 21.0817 34.9071 20.6859C34.9071 20.29 35.0697 19.9435 35.3949 19.6464C35.7205 19.3494 36.1002 19.2008 36.5341 19.2008C36.9679 19.2008 37.3476 19.3494 37.6732 19.6464C37.9988 19.9435 38.1616 20.29 38.1616 20.6859C38.1616 21.0817 37.9988 21.4282 37.6732 21.7253C37.3476 22.022 36.9679 22.1704 36.5341 22.1704Z" fill="#2D6A4F"/>
</g>
<defs>
<clipPath id="clip0_136_431">
<rect width="48" height="48" fill="white"/>
</clipPath>
</defs>
</svg>
