<svg width="48" height="48" viewBox="0 0 48 48" fill="none" xmlns="http://www.w3.org/2000/svg">
<g clip-path="url(#clip0_136_431)">
<path d="M10.9991 43C9.886 43 8.94112 42.6155 8.16445 41.8464C7.38815 41.077 7 40.1475 7 39.0577V34.6204H13.7042V5L16.4659 6.90858L19.3109 5L22.1559 6.90858L25.0008 5L27.8458 6.90858L30.6935 5L33.5412 6.90858L36.3884 5L39.2361 6.90858L42 5V39.0383C42 40.141 41.6118 41.077 40.8355 41.8464C40.0589 42.6155 39.114 43 38.0009 43H10.9991ZM37.9818 41.3406C38.6199 41.3406 39.1566 41.1263 39.5922 40.6977C40.0277 40.2688 40.2454 39.7101 40.2454 39.0216V7.58054H15.4588V35.8646H35.8108V39.0383C35.8108 39.702 36.0131 40.2517 36.4178 40.6875C36.8228 41.1229 37.3442 41.3406 37.9818 41.3406ZM18.8046 14.9732V13.3138H30.4464V14.9732H18.8046ZM18.8046 21.8261V20.1672H30.4464V21.8261H18.8046ZM35.4673 15.5541C35.0877 15.5541 34.7554 15.4129 34.4705 15.1307C34.186 14.8485 34.0437 14.5193 34.0437 14.1433C34.0437 13.7672 34.186 13.4382 34.4705 13.1563C34.7554 12.8741 35.0877 12.733 35.4673 12.733C35.8469 12.733 36.1792 12.8741 36.4641 13.1563C36.749 13.4382 36.8914 13.7672 36.8914 14.1433C36.8914 14.5193 36.749 14.8485 36.4641 15.1307C36.1792 15.4129 35.8469 15.5541 35.4673 15.5541ZM35.4673 22.2618C35.0877 22.2618 34.7554 22.1209 34.4705 21.839C34.186 21.5568 34.0437 21.2277 34.0437 20.8516C34.0437 20.4755 34.186 20.1464 34.4705 19.8641C34.7554 19.5819 35.0877 19.4408 35.4673 19.4408C35.8469 19.4408 36.1792 19.5819 36.4641 19.8641C36.749 20.1464 36.8914 20.4755 36.8914 20.8516C36.8914 21.2277 36.749 21.5568 36.4641 21.839C36.1792 22.1209 35.8469 22.2618 35.4673 22.2618Z" fill="#2D6A4F"/>
</g>
<defs>
<clipPath id="clip0_136_431">
<rect width="48" height="48" fill="white"/>
</clipPath>
</defs>
</svg>
