<svg width="48" height="48" viewBox="0 0 48 48" fill="none" xmlns="http://www.w3.org/2000/svg">
<g clip-path="url(#clip0_136_455)">
<path d="M10.9991 43C9.886 43 8.94112 42.6155 8.16445 41.8464C7.38815 41.077 7 40.1475 7 39.0577V34.6204H13.7042V5L16.4659 6.90858L19.3109 5L22.1559 6.90858L25.0008 5L27.8458 6.90858L30.6935 5L33.5413 6.90858L36.3884 5L39.2361 6.90858L42 5V39.0383C42 40.141 41.6118 41.077 40.8355 41.8464C40.0589 42.6155 39.114 43 38.0009 43H10.9991ZM38.0216 41.3406C38.6778 41.3406 39.2258 41.1229 39.6657 40.6875C40.1052 40.2517 40.3249 39.702 40.3249 39.0383V7.98717H15.3793V34.6204H35.7188V39.0383C35.7188 39.702 35.9386 40.2517 36.3781 40.6875C36.8179 41.1229 37.3658 41.3406 38.0216 41.3406ZM18.7251 15.471V13.8116H30.3669V15.471H18.7251ZM18.7251 22.3244V20.665H30.3669V22.3244H18.7251ZM35.3878 16.0518C35.0082 16.0518 34.6759 15.9107 34.391 15.6285C34.1065 15.3466 33.9642 15.0175 33.9642 14.641C33.9642 14.265 34.1065 13.936 34.391 13.6541C34.6759 13.3719 35.0082 13.2308 35.3878 13.2308C35.7674 13.2308 36.0997 13.3719 36.3846 13.6541C36.6691 13.936 36.8114 14.265 36.8114 14.641C36.8114 15.0175 36.6691 15.3466 36.3846 15.6285C36.0997 15.9107 35.7674 16.0518 35.3878 16.0518ZM35.3878 22.7596C35.0082 22.7596 34.6759 22.6187 34.391 22.3368C34.1065 22.0546 33.9642 21.7254 33.9642 21.3493C33.9642 20.9733 34.1065 20.6441 34.391 20.3619C34.6759 20.0797 35.0082 19.9385 35.3878 19.9385C35.7674 19.9385 36.0997 20.0797 36.3846 20.3619C36.6691 20.6441 36.8114 20.9733 36.8114 21.3493C36.8114 21.7254 36.6691 22.0546 36.3846 22.3368C36.0997 22.6187 35.7674 22.7596 35.3878 22.7596ZM10.9566 41.3406H34.0437V36.2793H8.67509V39.0383C8.67509 39.702 8.89757 40.2517 9.34252 40.6875C9.78783 41.1229 10.3259 41.3406 10.9566 41.3406Z" fill="#343A40"/>
</g>
<defs>
<clipPath id="clip0_136_455">
<rect width="48" height="48" fill="white"/>
</clipPath>
</defs>
</svg>
