<svg width="48" height="48" viewBox="0 0 48 48" fill="none" xmlns="http://www.w3.org/2000/svg">
<path d="M44 41.4131C43.9999 42.6898 43.5561 43.7732 42.6689 44.6641C41.7813 45.5545 40.7018 46 39.4297 46H8.57031C7.29824 46 6.21865 45.5545 5.33105 44.6641C4.44392 43.7732 4.00006 42.6972 4 41.4355V36.2969H11.6621V2L14.8184 4.20996L18.0693 2L21.3213 4.20996L24.5723 2L27.8242 4.20996L31.0781 2L34.333 4.20996L37.5869 2L40.8408 4.20996L44 2V41.4131ZM5.91406 41.4131C5.91413 42.1813 6.16848 42.8178 6.67676 43.3223C7.1856 43.8263 7.80077 44.078 8.52148 44.0781H34.9072V38.2178H5.91406V41.4131ZM13.5762 36.2969H36.8213V41.4131C36.8214 42.1814 37.073 42.8178 37.5752 43.3223C38.0779 43.8263 38.7037 44.0781 39.4531 44.0781C40.203 44.0781 40.8293 43.8264 41.332 43.3223C41.8343 42.8178 42.0859 42.1814 42.0859 41.4131V5.45898H13.5762V36.2969ZM36.4434 19.2969C36.877 19.2969 37.2565 19.4606 37.582 19.7871C37.9072 20.1139 38.0703 20.4953 38.0703 20.9307C38.0703 21.3661 37.9072 21.7474 37.582 22.0742C37.2565 22.4004 36.8771 22.5634 36.4434 22.5635C36.0095 22.5635 35.6293 22.4006 35.3037 22.0742C34.9786 21.7475 34.8164 21.366 34.8164 20.9307C34.8164 20.4953 34.9786 20.1139 35.3037 19.7871C35.6293 19.4603 36.0095 19.2969 36.4434 19.2969ZM30.7051 22.0596H17.4004V20.1387H30.7051V22.0596ZM36.4434 11.5303C36.8771 11.5303 37.2565 11.6939 37.582 12.0205C37.9072 12.3468 38.0703 12.7277 38.0703 13.1631C38.0703 13.599 37.9072 13.9803 37.582 14.3066C37.2565 14.6333 36.8771 14.7968 36.4434 14.7969C36.0095 14.7969 35.6293 14.6334 35.3037 14.3066C34.9786 13.9803 34.8164 13.5989 34.8164 13.1631C34.8165 12.7278 34.9787 12.3468 35.3037 12.0205C35.6293 11.6937 36.0095 11.5303 36.4434 11.5303ZM30.7051 14.124H17.4004V12.2031H30.7051V14.124Z" fill="#343A40"/>
</svg>
