<svg width="53" height="49" viewBox="0 0 53 49" fill="none" xmlns="http://www.w3.org/2000/svg">
<rect width="53" height="49" fill="white"/>
<path d="M14.4278 40C13.4737 40 12.6638 39.6964 11.9981 39.0893C11.3327 38.4819 11 37.748 11 36.8877V33.3845H16.7464V10L19.1136 11.5068L21.5522 10L23.9907 11.5068L26.4293 10L28.8679 11.5068L31.3087 10L33.7496 11.5068L36.1901 10L38.631 11.5068L41 10V36.8724C41 37.7429 40.6673 38.4819 40.0019 39.0893C39.3362 39.6964 38.5263 40 37.5722 40H14.4278ZM37.5899 38.6899C38.1524 38.6899 38.6221 38.5181 38.9991 38.1743C39.3758 37.8303 39.5642 37.3963 39.5642 36.8724V12.3583H18.1822V33.3845H35.6161V36.8724C35.6161 37.3963 35.8045 37.8303 36.1812 38.1743C36.5582 38.5181 37.0278 38.6899 37.5899 38.6899ZM21.0501 18.2666V16.9565H31.0288V18.2666H21.0501ZM21.0501 23.6772V22.3671H31.0288V23.6772H21.0501ZM35.3324 18.7251C35.007 18.7251 34.7222 18.6137 34.478 18.3909C34.2341 18.1684 34.1122 17.9085 34.1122 17.6113C34.1122 17.3144 34.2341 17.0547 34.478 16.8322C34.7222 16.6094 35.007 16.498 35.3324 16.498C35.6578 16.498 35.9426 16.6094 36.1868 16.8322C36.4307 17.0547 36.5526 17.3144 36.5526 17.6113C36.5526 17.9085 36.4307 18.1684 36.1868 18.3909C35.9426 18.6137 35.6578 18.7251 35.3324 18.7251ZM35.3324 24.0207C35.007 24.0207 34.7222 23.9095 34.478 23.687C34.2341 23.4641 34.1122 23.2043 34.1122 22.9074C34.1122 22.6105 34.2341 22.3506 34.478 22.1278C34.7222 21.905 35.007 21.7936 35.3324 21.7936C35.6578 21.7936 35.9426 21.905 36.1868 22.1278C36.4307 22.3506 36.5526 22.6105 36.5526 22.9074C36.5526 23.2043 36.4307 23.4641 36.1868 23.687C35.9426 23.9095 35.6578 24.0207 35.3324 24.0207ZM14.3914 38.6899H34.1803V34.6942H12.4358V36.8724C12.4358 37.3963 12.6265 37.8303 13.0079 38.1743C13.3896 38.5181 13.8507 38.6899 14.3914 38.6899Z" fill="#343A40"/>
</svg>
