<svg width="48" height="48" viewBox="0 0 48 48" fill="none" xmlns="http://www.w3.org/2000/svg">
<g clip-path="url(#clip0_136_421)">
<path d="M24 21.7434C21.6429 21.7434 19.68 20.8991 18.1114 19.2107C16.5429 17.5222 15.7586 15.4094 15.7586 12.8721C15.7586 10.2953 16.5429 8.17243 18.1114 6.50346C19.68 4.83449 21.6429 4 24 4C26.3571 4 28.32 4.83449 29.8886 6.50346C31.4571 8.17243 32.2414 10.2953 32.2414 12.8721C32.2414 15.4094 31.4571 17.5222 29.8886 19.2107C28.32 20.8991 26.3571 21.7434 24 21.7434ZM4 44V39.5521C4 38.1958 4.36071 36.9832 5.08214 35.9145C5.80405 34.8463 6.75095 34.0123 7.92286 33.4126C10.7471 32.0722 13.4862 31.057 16.14 30.3671C18.7938 29.6771 21.4138 29.3322 24 29.3322C26.5862 29.3322 29.2033 29.6799 31.8514 30.3755C34.5 31.0716 37.2364 32.084 40.0607 33.4126C41.2436 34.0123 42.1959 34.8463 42.9179 35.9145C43.6393 36.9832 44 38.1958 44 39.5521V44H4Z" fill="#2D6A4F"/>
</g>
<defs>
<clipPath id="clip0_136_421">
<rect width="48" height="48" fill="white"/>
</clipPath>
</defs>
</svg>
