<svg width="48" height="48" viewBox="0 0 48 48" fill="none" xmlns="http://www.w3.org/2000/svg">
<g clip-path="url(#clip0_136_443)">
<path d="M24 21.969C22.1143 21.969 20.544 21.2092 19.2891 19.6896C18.0343 18.17 17.4069 16.2594 17.4069 13.9579C17.4069 11.6568 18.0343 9.75519 19.2891 8.25311C20.544 6.75104 22.1143 6 24 6C25.8857 6 27.456 6.75104 28.7109 8.25311C29.9657 9.75519 30.5931 11.6568 30.5931 13.9579C30.5931 16.2594 29.9657 18.17 28.7109 19.6896C27.456 21.2092 25.8857 21.969 24 21.969ZM8 42V37.9968C8 36.7762 8.28857 35.6849 8.86571 34.7231C9.44324 33.7616 10.2008 33.0111 11.1383 32.4713C13.3977 31.265 15.5886 30.3513 17.7109 29.7304C19.8328 29.1094 21.9288 28.7989 23.9989 28.7989C26.0686 28.7989 28.1627 29.1119 30.2811 29.738C32.4 30.3644 34.5811 31.2836 36.8246 32.4955C37.7937 33.0261 38.5653 33.7704 39.1394 34.7286C39.7131 35.6868 40 36.7762 40 37.9968V42H8ZM9.75829 39.8708H38.2417V37.9968C38.2417 37.2942 38.0461 36.6173 37.6549 35.9659C37.2636 35.3149 36.7282 34.7747 36.0486 34.3452C33.9914 33.1282 31.9798 32.2545 30.0137 31.724C28.048 31.1934 26.0434 30.9282 24 30.9282C21.9566 30.9282 19.9402 31.1934 17.9509 31.724C15.9615 32.2545 13.9573 33.1282 11.9383 34.3452C11.2587 34.7747 10.7253 35.3149 10.3383 35.9659C9.95162 36.6173 9.75829 37.2942 9.75829 37.9968V39.8708ZM24 19.8398C25.3684 19.8398 26.5164 19.2783 27.444 18.1555C28.3716 17.0321 28.8354 15.6419 28.8354 13.9849C28.8354 12.3278 28.3716 10.9376 27.444 9.81424C26.5164 8.69091 25.3684 8.12925 24 8.12925C22.6316 8.12925 21.4836 8.69091 20.556 9.81424C19.6284 10.9376 19.1646 12.3278 19.1646 13.9849C19.1646 15.6419 19.6284 17.0321 20.556 18.1555C21.4836 19.2783 22.6316 19.8398 24 19.8398Z" fill="#343A40"/>
</g>
<defs>
<clipPath id="clip0_136_443">
<rect width="48" height="48" fill="white"/>
</clipPath>
</defs>
</svg>
