<svg width="48" height="48" viewBox="0 0 48 48" fill="none" xmlns="http://www.w3.org/2000/svg">
<g clip-path="url(#clip0_136_443)">
<path d="M24 21.7433C21.6429 21.7433 19.68 20.8991 18.1114 19.2107C16.5429 17.5222 15.7586 15.3994 15.7586 12.8421C15.7586 10.2853 16.5429 8.17243 18.1114 6.50346C19.68 4.83449 21.6429 4 24 4C26.3571 4 28.32 4.83449 29.8886 6.50346C31.4571 8.17243 32.2414 10.2853 32.2414 12.8421C32.2414 15.3994 31.4571 17.5222 29.8886 19.2107C28.32 20.8991 26.3571 21.7433 24 21.7433ZM4 44V39.5521C4 38.1958 4.36071 36.9832 5.08214 35.9145C5.80405 34.8463 6.75095 34.0123 7.92286 33.4126C10.7471 32.0722 13.4857 31.057 16.1386 30.3671C18.791 29.6771 21.411 29.3322 23.9986 29.3322C26.5857 29.3322 29.2033 29.6799 31.8514 30.3755C34.5 31.0716 37.2264 32.0929 40.0307 33.4395C41.2421 34.029 42.2067 34.856 42.9243 35.9207C43.6414 36.9853 44 38.1958 44 39.5521V44H4ZM6.19786 41.6342H41.8021V39.5521C41.8021 38.7714 41.5576 38.0192 41.0686 37.2954C40.5795 36.5721 39.9102 35.9719 39.0607 35.4947C36.4893 34.1425 33.9748 33.1717 31.5171 32.5822C29.06 31.9927 26.5543 31.698 24 31.698C21.4457 31.698 18.9252 31.9927 16.4386 32.5822C13.9519 33.1717 11.4467 34.1425 8.92286 35.4947C8.07333 35.9719 7.40667 36.5721 6.92286 37.2954C6.43952 38.0192 6.19786 38.7714 6.19786 39.5521V41.6342ZM24 19.3775C25.7105 19.3775 27.1455 18.7537 28.305 17.5061C29.4645 16.2579 30.0443 14.7133 30.0443 12.8721C30.0443 11.0309 29.4645 9.48619 28.305 8.23804C27.1455 6.9899 25.7105 6.36583 24 6.36583C22.2895 6.36583 20.8545 6.9899 19.695 8.23804C18.5355 9.48619 17.9557 11.0309 17.9557 12.8721C17.9557 14.7133 18.5355 16.2579 19.695 17.5061C20.8545 18.7537 22.2895 19.3775 24 19.3775Z" fill="#343A40"/>
</g>
<defs>
<clipPath id="clip0_136_443">
<rect width="48" height="48" fill="white"/>
</clipPath>
</defs>
</svg>
