<svg width="24" height="24" viewBox="0 0 24 24" fill="none" xmlns="http://www.w3.org/2000/svg">
<path d="M5.74758 22C5.42075 22 5.1302 21.887 4.87594 21.6609C4.62168 21.435 4.45206 21.1298 4.36708 20.7452L2.03335 10.5898C1.96537 10.3142 2.00132 10.0634 2.14119 9.83754C2.28107 9.61147 2.47194 9.49844 2.71379 9.49844H7.6479L11.5995 2.26191C11.6583 2.16898 11.719 2.10209 11.7818 2.06126C11.8446 2.02042 11.9179 2 12.0015 2C12.0851 2 12.1583 2.02438 12.221 2.07313C12.2839 2.1221 12.3448 2.18502 12.4036 2.26191L16.31 9.49844H21.2676C21.5094 9.49844 21.7036 9.61147 21.8501 9.83754C21.9965 10.0634 22.0356 10.3142 21.9677 10.5898L19.5692 20.7452C19.4842 21.1298 19.3146 21.435 19.0603 21.6609C18.8061 21.887 18.522 22 18.2083 22H5.74758ZM11.9878 16.7109C12.2034 16.7109 12.3881 16.6167 12.5417 16.4284C12.6954 16.24 12.7722 16.0136 12.7722 15.7492C12.7722 15.4848 12.6954 15.2584 12.5417 15.0701C12.3881 14.8817 12.2034 14.7875 11.9878 14.7875C11.7721 14.7875 11.5874 14.8817 11.4338 15.0701C11.2801 15.2584 11.2033 15.4848 11.2033 15.7492C11.2033 16.0136 11.2801 16.24 11.4338 16.4284C11.5874 16.6167 11.7721 16.7109 11.9878 16.7109ZM8.60674 9.49844H15.3509L11.9819 3.24766L8.60674 9.49844Z" fill="#F8F9FA"/>
<ellipse cx="12" cy="16.1667" rx="1.33333" ry="1.66667" fill="#F8F9FA"/>
</svg>
