<svg width="53" height="49" viewBox="0 0 53 49" fill="none" xmlns="http://www.w3.org/2000/svg">
<rect width="53" height="49" fill="white"/>
<g clip-path="url(#clip0_125_427)">
<path d="M29.9328 34.9037L22.0984 32.1418L17.25 34.0481C16.96 34.1874 16.6792 34.173 16.4075 34.0046C16.1358 33.8365 16 33.5841 16 33.2474V17.9974C16 17.7747 16.0541 17.5712 16.1622 17.3868C16.2703 17.2026 16.4254 17.0745 16.6275 17.0024L22.0984 15.0962L29.9328 17.8268L34.75 15.9446C35.04 15.81 35.3208 15.8137 35.5925 15.9556C35.8642 16.0972 36 16.3284 36 16.649V32.1899C36 32.4031 35.9339 32.5889 35.8016 32.7474C35.6695 32.9062 35.5049 33.0192 35.3078 33.0865L29.9328 34.9037ZM29.375 33.714V18.5578L22.625 16.2306V31.3868L29.375 33.714ZM30.3366 33.714L35.0384 32.1731V16.7981L30.3366 18.5578V33.714ZM16.9616 33.1706L21.6634 31.3868V16.2306L16.9616 17.8196V33.1706Z" fill="#343A40"/>
</g>
<defs>
<clipPath id="clip0_125_427">
<rect width="30" height="30" fill="white" transform="translate(11 10)"/>
</clipPath>
</defs>
</svg>
