<svg width="53" height="49" viewBox="0 0 53 49" fill="none" xmlns="http://www.w3.org/2000/svg">
<rect width="53" height="49" fill="white"/>
<path d="M27 24.2234C25.9688 24.2234 25.11 23.8803 24.4237 23.194C23.7375 22.5078 23.3944 21.645 23.3944 20.6056C23.3944 19.5664 23.7375 18.7077 24.4237 18.0293C25.11 17.351 25.9688 17.0118 27 17.0118C28.0312 17.0118 28.89 17.351 29.5763 18.0293C30.2625 18.7077 30.6056 19.5664 30.6056 20.6056C30.6056 21.645 30.2625 22.5078 29.5763 23.194C28.89 23.8803 28.0312 24.2234 27 24.2234ZM18.25 33.2693V31.4615C18.25 30.9103 18.4078 30.4175 18.7234 29.9831C19.0393 29.5489 19.4535 29.21 19.9662 28.9662C21.2019 28.4214 22.4 28.0088 23.5606 27.7284C24.721 27.448 25.8673 27.3078 26.9994 27.3078C28.1313 27.3078 29.2765 27.4491 30.435 27.7318C31.5937 28.0148 32.7866 28.4299 34.0134 28.9772C34.5434 29.2167 34.9654 29.5529 35.2794 29.9856C35.5931 30.4183 35.75 30.9103 35.75 31.4615V33.2693H18.25ZM19.2116 32.3078H34.7884V31.4615C34.7884 31.1442 34.6815 30.8385 34.4675 30.5443C34.2535 30.2504 33.9607 30.0064 33.5891 29.8125C32.4641 29.2629 31.364 28.8683 30.2887 28.6287C29.2137 28.3891 28.1175 28.2693 27 28.2693C25.8825 28.2693 24.7798 28.3891 23.6919 28.6287C22.604 28.8683 21.5079 29.2629 20.4038 29.8125C20.0321 30.0064 19.7404 30.2504 19.5287 30.5443C19.3173 30.8385 19.2116 31.1442 19.2116 31.4615V32.3078ZM27 23.2618C27.7483 23.2618 28.3761 23.0083 28.8834 22.5012C29.3907 21.9939 29.6444 21.3661 29.6444 20.6178C29.6444 19.8694 29.3907 19.2416 28.8834 18.7343C28.3761 18.227 27.7483 17.9734 27 17.9734C26.2517 17.9734 25.6239 18.227 25.1166 18.7343C24.6093 19.2416 24.3556 19.8694 24.3556 20.6178C24.3556 21.3661 24.6093 21.9939 25.1166 22.5012C25.6239 23.0083 26.2517 23.2618 27 23.2618Z" fill="#343A40"/>
</svg>
